<svg width="24" height="24" viewBox="0 0 24 24" fill="none" xmlns="http://www.w3.org/2000/svg">
<g clip-path="url(#clip0_1_703)">
<path d="M17 3.34C18.5083 4.21085 19.7629 5.46053 20.6398 6.9653C21.5167 8.47007 21.9854 10.1778 21.9994 11.9193C22.0135 13.6609 21.5725 15.376 20.72 16.8947C19.8676 18.4134 18.6332 19.6832 17.1392 20.5783C15.6452 21.4734 13.9434 21.9628 12.2021 21.9981C10.4608 22.0333 8.74055 21.6132 7.21155 20.7792C5.68256 19.9453 4.39787 18.7265 3.48467 17.2435C2.57146 15.7605 2.06141 14.0647 2.005 12.324L2 12L2.005 11.676C2.061 9.94899 2.56355 8.26596 3.46364 6.79099C4.36373 5.31602 5.63065 4.09945 7.14089 3.25988C8.65113 2.42031 10.3531 1.9864 12.081 2.00044C13.8089 2.01448 15.5036 2.476 17 3.34Z" fill="#D1FD0A"/>
<g clip-path="url(#clip1_1_703)">
<path d="M7.91699 9.08333C7.91699 9.70217 8.16282 10.2957 8.60041 10.7332C9.03799 11.1708 9.63149 11.4167 10.2503 11.4167C10.8692 11.4167 11.4627 11.1708 11.9002 10.7332C12.3378 10.2957 12.5837 9.70217 12.5837 9.08333C12.5837 8.46449 12.3378 7.871 11.9002 7.43342C11.4627 6.99583 10.8692 6.75 10.2503 6.75C9.63149 6.75 9.03799 6.99583 8.60041 7.43342C8.16282 7.871 7.91699 8.46449 7.91699 9.08333Z" stroke="black" stroke-width="1.8" stroke-linecap="round" stroke-linejoin="round"/>
<path d="M6.75 17.25V16.0833C6.75 15.4645 6.99583 14.871 7.43342 14.4334C7.871 13.9958 8.46449 13.75 9.08333 13.75H11.4167C12.0355 13.75 12.629 13.9958 13.0666 14.4334C13.5042 14.871 13.75 15.4645 13.75 16.0833V17.25" stroke="black" stroke-width="1.8" stroke-linecap="round" stroke-linejoin="round"/>
<path d="M14.334 6.82812C14.8359 6.95663 15.2808 7.24853 15.5984 7.65781C15.9161 8.06708 16.0886 8.57044 16.0886 9.08854C16.0886 9.60664 15.9161 10.11 15.5984 10.5193C15.2808 10.9285 14.8359 11.2204 14.334 11.349" stroke="black" stroke-width="1.8" stroke-linecap="round" stroke-linejoin="round"/>
<path d="M17.25 17.2484V16.0818C17.247 15.5668 17.0738 15.0672 16.7572 14.661C16.4407 14.2548 15.9986 13.9647 15.5 13.8359" stroke="black" stroke-width="1.8" stroke-linecap="round" stroke-linejoin="round"/>
</g>
</g>
<defs>
<clipPath id="clip0_1_703">
<rect width="24" height="24" fill="white"/>
</clipPath>
<clipPath id="clip1_1_703">
<rect width="14" height="14" fill="white" transform="translate(5 5)"/>
</clipPath>
</defs>
</svg>
