<svg width="24" height="24" viewBox="0 0 24 24" fill="none" xmlns="http://www.w3.org/2000/svg">
<g clip-path="url(#clip0_1_569)">
<path d="M17 3.34001C18.5083 4.21087 19.7629 5.46054 20.6398 6.96531C21.5167 8.47009 21.9854 10.1778 21.9994 11.9194C22.0135 13.6609 21.5725 15.376 20.72 16.8947C19.8676 18.4135 18.6332 19.6832 17.1392 20.5783C15.6452 21.4734 13.9434 21.9628 12.2021 21.9981C10.4608 22.0333 8.74055 21.6132 7.21155 20.7793C5.68256 19.9453 4.39787 18.7265 3.48467 17.2435C2.57146 15.7605 2.06141 14.0647 2.005 12.324L2 12L2.005 11.676C2.061 9.94901 2.56355 8.26598 3.46364 6.79101C4.36373 5.31604 5.63065 4.09947 7.14089 3.2599C8.65113 2.42033 10.3531 1.98641 12.081 2.00045C13.8089 2.01449 15.5036 2.47601 17 3.34001Z" fill="#D1FD0A"/>
<g clip-path="url(#clip1_1_569)">
<path d="M6.66699 15L9.33366 11L12.0003 12.3333L14.667 9L17.3337 11.6667" stroke="black" stroke-width="2" stroke-linecap="round" stroke-linejoin="round"/>
</g>
</g>
<defs>
<clipPath id="clip0_1_569">
<rect width="24" height="24" fill="white"/>
</clipPath>
<clipPath id="clip1_1_569">
<rect width="16" height="16" fill="white" transform="translate(4 5)"/>
</clipPath>
</defs>
</svg>
