<svg width="24" height="24" viewBox="0 0 24 24" fill="none" xmlns="http://www.w3.org/2000/svg">
<g clip-path="url(#clip0_1_1072)">
<path d="M17 3.34001C18.5083 4.21087 19.7629 5.46054 20.6398 6.96531C21.5167 8.47009 21.9854 10.1778 21.9994 11.9194C22.0135 13.6609 21.5725 15.376 20.72 16.8947C19.8676 18.4135 18.6332 19.6832 17.1392 20.5783C15.6452 21.4734 13.9434 21.9628 12.2021 21.9981C10.4608 22.0333 8.74055 21.6132 7.21155 20.7793C5.68256 19.9453 4.39787 18.7265 3.48467 17.2435C2.57146 15.7605 2.06141 14.0647 2.005 12.324L2 12L2.005 11.676C2.061 9.94901 2.56355 8.26598 3.46364 6.79101C4.36373 5.31604 5.63065 4.09947 7.14089 3.2599C8.65113 2.42033 10.3531 1.98641 12.081 2.00045C13.8089 2.01449 15.5036 2.47601 17 3.34001Z" fill="#D1FD0A"/>
<g clip-path="url(#clip1_1_1072)">
<path d="M13.75 8.5L12.5 11.5L9.5 12.75L12.5 14L13.75 17L15 14L18 12.75L15 11.5L13.75 8.5ZM8.0625 9.9375L8.75 12L9.4375 9.9375L11.5 9.25L9.4375 8.5625L8.75 6.5L8.0625 8.5625L6 9.25L8.0625 9.9375ZM9.1875 15.3125L8.75 14L8.3125 15.3125L7 15.75L8.3125 16.1875L8.75 17.5L9.1875 16.1875L10.5 15.75L9.1875 15.3125Z" fill="black"/>
</g>
</g>
<defs>
<clipPath id="clip0_1_1072">
<rect width="24" height="24" fill="white"/>
</clipPath>
<clipPath id="clip1_1_1072">
<rect width="12" height="12" fill="white" transform="translate(6 6)"/>
</clipPath>
</defs>
</svg>
