<svg width="20" height="20" viewBox="0 0 20 20" fill="none" xmlns="http://www.w3.org/2000/svg">
<path d="M16.1784 0.664062C15.7264 0.664062 15.3289 0.969583 15.2122 1.40625L14.3438 4.66406H11.138C9.76735 4.66406 8.55272 5.48568 8.05339 6.73568L6.89974 9.33073H5.66667C5.20667 9.33073 4.78698 9.51771 4.48698 9.81771C4.20698 10.0977 4.02667 10.4771 4 10.8971C3.94667 11.8638 4.8001 12.6641 5.77344 12.6641H9.33333V16.7513C7.03467 17.0473 5.33333 18.0861 5.33333 19.3307H16C16 18.0861 14.2987 17.0473 12 16.7513V12.6641H13.3333H15.0404H15.3906C15.6573 12.6641 15.9083 12.5598 16.0977 12.3711L16.4401 12.0299C16.5681 11.9013 16.6585 11.7404 16.7018 11.5664L19.1172 1.90625C19.1925 1.60558 19.1262 1.29348 18.9349 1.04948C18.7436 0.804146 18.4558 0.664062 18.1458 0.664062H16.1784ZM11.138 5.9974H13.9883L13.1003 9.33073H8.35937L9.28255 7.25521C9.58789 6.49121 10.3154 5.9974 11.138 5.9974ZM5.01953 13.9909L4.72005 14.737C4.41339 15.5036 3.68604 15.9974 2.85938 15.9974H2.66667C2.3 15.9974 2 16.2974 2 16.6641C2 17.0307 2.3 17.3307 2.66667 17.3307H2.85938C4.23271 17.3307 5.44646 16.5103 5.95312 15.237L6.45312 13.9974H5.33333C5.22667 13.9974 5.11953 13.9976 5.01953 13.9909Z" fill="white"/>
</svg>
