<svg width="20" height="20" viewBox="0 0 20 20" fill="none" xmlns="http://www.w3.org/2000/svg">
<g clip-path="url(#clip0_1_779)">
<path d="M10.4004 0.800781C8.85352 0.800781 7.60039 2.05391 7.60039 3.60078C7.60039 5.99297 12.8004 9.60078 12.8004 9.60078C12.8004 9.60078 18.0004 5.97422 18.0004 3.60078C18.0004 2.05391 16.7473 0.800781 15.2004 0.800781C14.1801 0.800781 13.2895 1.34766 12.8004 2.16328C12.3113 1.34766 11.4207 0.800781 10.4004 0.800781ZM18.4129 10.8133C18.1238 10.832 17.8426 10.9586 17.6254 11.1758L13.6004 15.2008H9.60039L8.80039 14.4008L11.8754 13.7883C12.3238 13.6992 12.6926 13.3633 12.7754 12.9133C12.9035 12.2148 12.3754 11.6008 11.7004 11.6008H6.12539C5.27695 11.6008 4.46289 11.9383 3.86289 12.5383L0.400391 16.0008L4.00039 19.6008L5.36289 18.2383C5.51289 18.0883 5.71289 18.0008 5.92539 18.0008H13.3379C13.7629 18.0008 14.1629 17.8258 14.4629 17.5258L19.2629 12.7258C19.7191 12.2695 19.7113 11.5258 19.2254 11.0883C18.9973 10.8836 18.702 10.7945 18.4129 10.8133Z" fill="white"/>
</g>
<defs>
<clipPath id="clip0_1_779">
<rect width="20" height="20" fill="white"/>
</clipPath>
</defs>
</svg>
