<svg width="20" height="20" viewBox="0 0 20 20" fill="none" xmlns="http://www.w3.org/2000/svg">
<path d="M6.66634 2C6.48954 2.00002 6.31998 2.07026 6.19496 2.19528C6.06994 2.3203 5.99969 2.48986 5.99967 2.66667V3.33333C5.99843 3.42167 6.01475 3.50938 6.04769 3.59136C6.08063 3.67334 6.12954 3.74795 6.19157 3.81087C6.2536 3.87378 6.32751 3.92374 6.40902 3.95784C6.49052 3.99194 6.57799 4.0095 6.66634 4.0095C6.75469 4.0095 6.84216 3.99194 6.92367 3.95784C7.00517 3.92374 7.07908 3.87378 7.14111 3.81087C7.20314 3.74795 7.25205 3.67334 7.28499 3.59136C7.31794 3.50938 7.33426 3.42167 7.33301 3.33333H12.6663C12.6651 3.42167 12.6814 3.50938 12.7144 3.59136C12.7473 3.67334 12.7962 3.74795 12.8582 3.81087C12.9203 3.87378 12.9942 3.92374 13.0757 3.95784C13.1572 3.99194 13.2447 4.0095 13.333 4.0095C13.4214 4.0095 13.5088 3.99194 13.5903 3.95784C13.6718 3.92374 13.7458 3.87378 13.8078 3.81087C13.8698 3.74795 13.9187 3.67334 13.9517 3.59136C13.9846 3.50938 14.0009 3.42167 13.9997 3.33333V2.66667C13.9997 2.48986 13.9294 2.3203 13.8044 2.19528C13.6794 2.07026 13.5098 2.00002 13.333 2H6.66634ZM2.66634 5.33333C1.92967 5.33333 1.33301 5.93 1.33301 6.66667V15.3333C1.33301 16.07 1.92967 16.6667 2.66634 16.6667H17.333C18.0697 16.6667 18.6663 16.07 18.6663 15.3333V6.66667C18.6663 5.93 18.0697 5.33333 17.333 5.33333H14.6663C14.6663 5.70133 14.3677 6 13.9997 6C13.6317 6 13.333 5.70133 13.333 5.33333H11.9997C11.9997 5.70133 11.701 6 11.333 6C10.965 6 10.6663 5.70133 10.6663 5.33333H9.33301C9.33301 5.70133 9.03434 6 8.66634 6C8.29834 6 7.99967 5.70133 7.99967 5.33333H6.66634C6.66634 5.70133 6.36767 6 5.99967 6C5.63167 6 5.33301 5.70133 5.33301 5.33333H2.66634ZM4.66634 9.33333C5.77101 9.33333 6.66634 10.2287 6.66634 11.3333C6.66634 12.438 5.77101 13.3333 4.66634 13.3333C3.56167 13.3333 2.66634 12.438 2.66634 11.3333C2.66634 10.2287 3.56167 9.33333 4.66634 9.33333ZM8.66634 9.33333H11.333C11.701 9.33333 11.9997 9.632 11.9997 10V11.3333C11.9997 11.7013 11.701 12 11.333 12H8.66634C8.29834 12 7.99967 11.7013 7.99967 11.3333V10C7.99967 9.632 8.29834 9.33333 8.66634 9.33333ZM15.333 9.33333C16.4377 9.33333 17.333 10.2287 17.333 11.3333C17.333 12.438 16.4377 13.3333 15.333 13.3333C14.2283 13.3333 13.333 12.438 13.333 11.3333C13.333 10.2287 14.2283 9.33333 15.333 9.33333Z" fill="white"/>
</svg>
