<svg width="20" height="20" viewBox="0 0 20 20" fill="none" xmlns="http://www.w3.org/2000/svg">
<path d="M9.99935 1.66406C5.40435 1.66406 1.66602 5.4024 1.66602 9.9974C1.66602 14.5924 5.40435 18.3307 9.99935 18.3307C14.5943 18.3307 18.3327 14.5924 18.3327 9.9974C18.3327 5.4024 14.5943 1.66406 9.99935 1.66406ZM5.83268 11.0391C5.25768 11.0391 4.79102 10.5724 4.79102 9.9974C4.79102 9.4224 5.25768 8.95573 5.83268 8.95573C6.40768 8.95573 6.87435 9.4224 6.87435 9.9974C6.87435 10.5724 6.40768 11.0391 5.83268 11.0391ZM9.99935 11.0391C9.42435 11.0391 8.95768 10.5724 8.95768 9.9974C8.95768 9.4224 9.42435 8.95573 9.99935 8.95573C10.5743 8.95573 11.041 9.4224 11.041 9.9974C11.041 10.5724 10.5743 11.0391 9.99935 11.0391ZM14.166 11.0391C13.591 11.0391 13.1243 10.5724 13.1243 9.9974C13.1243 9.4224 13.591 8.95573 14.166 8.95573C14.741 8.95573 15.2077 9.4224 15.2077 9.9974C15.2077 10.5724 14.741 11.0391 14.166 11.0391Z" fill="white"/>
</svg>
