<svg width="20" height="20" viewBox="0 0 20 20" fill="none" xmlns="http://www.w3.org/2000/svg">
<g clip-path="url(#clip0_1_755)">
<path d="M9.9998 0.800781C4.927 0.800781 0.799805 4.92758 0.799805 10.0008C0.799805 15.074 4.927 19.2008 9.9998 19.2008C15.0726 19.2008 19.1998 15.074 19.1998 10.0008C19.1998 4.92758 15.0726 0.800781 9.9998 0.800781ZM12.845 4.23638L13.275 3.51998C13.3886 3.33038 13.6338 3.26918 13.8238 3.38278C14.0134 3.49638 14.0746 3.74198 13.961 3.93158L13.531 4.64798C13.4558 4.77318 13.3234 4.84198 13.1878 4.84198C13.1178 4.84198 13.0466 4.82358 12.9822 4.78478C12.7926 4.67158 12.7314 4.42598 12.845 4.23638ZM9.5998 2.75878C9.5998 2.53758 9.77901 2.35878 9.9998 2.35878C10.2206 2.35878 10.3998 2.53758 10.3998 2.75878V3.58278C10.3998 3.80398 10.2206 3.98278 9.9998 3.98278C9.77901 3.98278 9.5998 3.80398 9.5998 3.58278V2.75878ZM3.4242 6.13478C3.5378 5.94478 3.7834 5.88358 3.973 5.99758L4.6894 6.42718C4.879 6.54078 4.94021 6.78638 4.8266 6.97598C4.75141 7.10118 4.619 7.16998 4.4834 7.16998C4.4134 7.16998 4.3422 7.15158 4.2782 7.11278L3.5618 6.68318C3.3718 6.56998 3.3102 6.32438 3.4242 6.13478ZM2.3998 9.95878C2.3998 9.73758 2.579 9.55878 2.7998 9.55878H3.6238C3.8446 9.55878 4.0238 9.73758 4.0238 9.95878C4.0238 10.18 3.8446 10.3588 3.6238 10.3588H2.7998C2.579 10.3588 2.3998 10.1796 2.3998 9.95878ZM4.6894 13.4896L3.973 13.9196C3.9086 13.9584 3.8378 13.9768 3.7674 13.9768C3.6314 13.9768 3.499 13.9076 3.4242 13.7828C3.3106 13.5932 3.3718 13.3476 3.5614 13.234L4.2778 12.804C4.467 12.6904 4.713 12.7516 4.8266 12.9412C4.94021 13.13 4.8786 13.376 4.6894 13.4896ZM7.01741 4.78518C6.953 4.82398 6.88221 4.84238 6.81181 4.84238C6.67581 4.84238 6.54341 4.77318 6.46861 4.64838L6.0386 3.93198C5.925 3.74238 5.9862 3.49678 6.1758 3.38318C6.3654 3.26998 6.611 3.33078 6.72461 3.52038L7.1546 4.23678C7.2682 4.42598 7.20701 4.67158 7.01741 4.78518ZM10.7398 10.95C10.5378 11.106 10.2846 11.2008 9.9998 11.2008C9.31981 11.2008 8.7998 10.6808 8.7998 10.0008C8.7998 9.46038 9.1306 9.02598 9.6062 8.86838L9.6046 8.86558L16.5274 6.19758L10.7422 10.9544L10.7398 10.95ZM16.5754 13.7824C16.5002 13.9076 16.3678 13.9764 16.2322 13.9764C16.1622 13.9764 16.091 13.958 16.0266 13.9192L15.3102 13.4892C15.1206 13.3756 15.0594 13.13 15.173 12.9404C15.2866 12.7508 15.5322 12.6892 15.7218 12.8032L16.4382 13.2332C16.6278 13.3472 16.6894 13.5928 16.5754 13.7824ZM17.1998 10.3588H16.3758C16.155 10.3588 15.9758 10.18 15.9758 9.95878C15.9758 9.73758 16.155 9.55878 16.3758 9.55878H17.1998C17.4206 9.55878 17.5998 9.73758 17.5998 9.95878C17.5998 10.18 17.4206 10.3588 17.1998 10.3588Z" fill="white"/>
</g>
<defs>
<clipPath id="clip0_1_755">
<rect width="20" height="20" fill="white"/>
</clipPath>
</defs>
</svg>
