<svg width="20" height="20" viewBox="0 0 20 20" fill="none" xmlns="http://www.w3.org/2000/svg">
<path d="M12.4005 0C11.2958 0 10.4005 0.895312 10.4005 2C10.4005 3.10469 11.2958 4 12.4005 4C13.5052 4 14.4005 3.10469 14.4005 2C14.4005 0.895312 13.5052 0 12.4005 0ZM9.03798 3.6375C8.96142 3.63906 8.92548 3.65 8.92548 3.65C8.92548 3.65 4.46298 4.19531 2.97548 4.45C1.69267 4.67031 1.82548 5.66719 2.97548 5.65C4.06923 5.63438 8.57548 5.65 8.57548 5.65C8.57548 5.65 5.59892 11.9203 4.75048 13.7625C4.53798 14.2219 4.64892 14.8203 5.17548 15.05C5.81767 15.3313 6.20048 14.8688 6.45048 14.4875C6.80986 13.9359 8.63955 10.7406 8.78798 10.7625C9.00205 10.7937 6.11611 18.0328 5.93798 18.6375C5.75986 19.2422 5.87392 19.7625 6.45048 19.9375C7.21455 20.1719 7.4958 19.6375 7.67548 19.2125C7.85517 18.7875 12.5505 7.675 12.5505 7.675C12.5505 7.675 14.3161 8.50156 14.8755 8.725C15.4333 8.94688 15.7333 8.71406 15.863 8.6C16.1911 8.34375 17.8052 7.14844 18.3005 6.725C18.7958 6.30156 19.352 5.71406 18.788 5.15C18.463 4.83594 17.9505 5.225 17.9505 5.225L15.5255 7.075C15.5255 7.075 13.7974 5.83438 13.1755 5.475C12.413 5.03594 10.7505 4.13906 10.213 3.8625C9.78486 3.64219 9.26923 3.63125 9.03798 3.6375ZM13.2005 16C12.0958 16 11.2005 16.8953 11.2005 18C11.2005 19.1031 12.0958 20 13.2005 20C14.3052 20 15.2005 19.1031 15.2005 18C15.2005 16.8953 14.3052 16 13.2005 16Z" fill="white"/>
</svg>
