<svg width="20" height="20" viewBox="0 0 20 20" fill="none" xmlns="http://www.w3.org/2000/svg">
<path d="M7.33366 2C5.12433 2 3.33366 3.79067 3.33366 6C3.33366 6.346 3.3825 6.68 3.46517 7C3.90984 5.276 5.47033 4 7.33366 4C8.24236 4 9.07601 4.30681 9.74642 4.81771C9.15261 4.65064 8.50377 4.61484 7.83105 4.7513C6.30039 5.06197 5.06229 6.29876 4.75163 7.82943C4.56629 8.74343 4.69326 9.61728 5.0446 10.3633C5.2726 10.8473 6.02426 10.6942 6.00293 10.1589C5.98826 9.78685 6.02605 9.39987 6.12272 9.00521C6.46805 7.59921 7.59953 6.46773 9.00553 6.1224C9.33506 6.04133 9.6574 6.00591 9.97298 6.00391C9.50303 12.163 2.66699 14.6667 2.66699 14.6667V16C2.66699 16.7367 3.26366 17.3333 4.00033 17.3333H16.0003C16.737 17.3333 17.3337 16.7367 17.3337 16V14.6667C17.3337 14.6667 16.667 15.3333 16.0003 15.3333C15.3337 15.3333 14.667 14.6667 14.667 14.6667C14.667 14.6667 14.0003 15.3333 13.3337 15.3333C12.667 15.3333 12.0003 14.6667 12.0003 14.6667C12.0003 14.6667 11.3337 15.3333 10.667 15.3333C10.0003 15.3333 9.33366 14.6667 9.33366 14.6667H8.06022C8.06022 14.6667 11.3072 12.4199 11.3311 6.06771C11.446 6.08652 11.5601 6.09609 11.6761 6.125C13.0728 6.47233 14.1947 7.59552 14.542 8.99219C14.6407 9.38885 14.6784 9.77701 14.6644 10.1523C14.6437 10.689 15.3967 10.8428 15.6253 10.3568C15.9747 9.6121 16.101 8.74206 15.9157 7.83073C15.6164 6.35628 14.4527 5.16227 13.0003 4.79818C13.3204 4.71539 13.654 4.66667 14.0003 4.66667C15.8637 4.66667 17.4241 5.94267 17.8688 7.66667C17.9515 7.34667 18.0003 7.01267 18.0003 6.66667C18.0003 4.45733 16.2097 2.66667 14.0003 2.66667C12.7388 2.66667 11.6201 3.25576 10.887 4.16797C10.2222 2.88124 8.88201 2 7.33366 2Z" fill="white"/>
</svg>
