<svg width="26" height="26" viewBox="0 0 26 26" fill="none" xmlns="http://www.w3.org/2000/svg">
<path d="M12.9998 2.60156C12.0421 2.60156 11.2664 3.37723 11.2664 4.3349V4.56172C8.27796 5.33269 6.06644 8.03907 6.06644 11.2682V13.3435C6.06644 14.7215 5.78344 16.0756 5.25564 17.3349H20.7439C20.2161 16.0765 19.9331 14.7215 19.9331 13.3435V11.2682C19.9331 8.03907 17.7216 5.33269 14.7331 4.56172V4.3349C14.7331 3.37723 13.9574 2.60156 12.9998 2.60156ZM4.33311 19.0682C4.21827 19.0666 4.10425 19.0878 3.99767 19.1306C3.8911 19.1735 3.7941 19.2371 3.71232 19.3177C3.63053 19.3983 3.56558 19.4944 3.52126 19.6004C3.47693 19.7063 3.4541 19.82 3.4541 19.9349C3.4541 20.0497 3.47693 20.1635 3.52126 20.2694C3.56558 20.3754 3.63053 20.4715 3.71232 20.5521C3.7941 20.6327 3.8911 20.6963 3.99767 20.7391C4.10425 20.782 4.21827 20.8032 4.33311 20.8016H10.5521C10.4525 21.0797 10.4009 21.3728 10.3998 21.6682C10.3998 22.3578 10.6737 23.0191 11.1613 23.5067C11.6489 23.9943 12.3102 24.2682 12.9998 24.2682C13.6893 24.2682 14.3507 23.9943 14.8383 23.5067C15.3258 23.0191 15.5998 22.3578 15.5998 21.6682C15.5991 21.3729 15.5482 21.0798 15.4491 20.8016H21.6664C21.7813 20.8032 21.8953 20.782 22.0019 20.7391C22.1085 20.6963 22.2055 20.6327 22.2872 20.5521C22.369 20.4715 22.434 20.3754 22.4783 20.2694C22.5226 20.1635 22.5455 20.0497 22.5455 19.9349C22.5455 19.82 22.5226 19.7063 22.4783 19.6004C22.434 19.4944 22.369 19.3983 22.2872 19.3177C22.2055 19.2371 22.1085 19.1735 22.0019 19.1306C21.8953 19.0878 21.7813 19.0666 21.6664 19.0682H12.9998H4.33311Z" fill="#8D9095"/>
</svg>
