<svg width="21" height="15" viewBox="0 0 21 15" fill="none" xmlns="http://www.w3.org/2000/svg">
<rect width="21" height="15" fill="white"/>
<rect x="16.1538" width="4.84615" height="15" fill="#D52B1E"/>
<rect width="4.84615" height="15" fill="#D52B1E"/>
<path fill-rule="evenodd" clip-rule="evenodd" d="M10.2981 12.7778H10.7019L10.6346 10.4167L10.9038 10.2778L12.9237 10.6944L12.6539 9.86111L15.0769 7.77778L14.4039 7.5L14.9423 5.83333L13.4615 6.25L13.1923 5.41667L12.1154 6.66667H11.8462L12.3846 3.75L11.5769 4.30556L11.4423 4.31193L10.5 2.5L9.5577 4.30556H9.42308L8.61539 3.75L9.15385 6.66667H8.88462L7.8077 5.41667L7.53847 6.25L6.0577 5.83333L6.59616 7.5L5.92308 7.77778L8.34673 9.86111L8.07693 10.6944L10.0962 10.2778L10.3654 10.4167L10.2981 12.7778Z" fill="#D52B1E"/>
</svg>
