<svg width="12" height="14" viewBox="0 0 12 14" fill="none" xmlns="http://www.w3.org/2000/svg">
<path d="M11.584 12.7869L7.45173 1.02688C7.41225 0.914884 7.30641 0.839844 7.18769 0.839844H4.81245C4.69373 0.839844 4.58761 0.914884 4.54841 1.02688L0.416171 12.7869C0.386211 12.8726 0.399371 12.9675 0.451731 13.0417C0.504091 13.1159 0.589211 13.1598 0.679931 13.1598H2.46493C2.58365 13.1598 2.68977 13.0848 2.72897 12.9725L3.74565 10.0798H8.25449L9.27089 12.9725C9.31037 13.0848 9.41621 13.1598 9.53493 13.1598H11.3199C11.4107 13.1598 11.4958 13.1159 11.5484 13.0417C11.6011 12.9675 11.6142 12.8728 11.584 12.7869ZM5.91005 3.91984H6.08953L7.56541 8.11984H4.43417L5.91005 3.91984Z" fill="white"/>
</svg>
