<svg width="20" height="20" viewBox="0 0 20 20" fill="none" xmlns="http://www.w3.org/2000/svg">
<path d="M1.8002 0.398438C1.37585 0.398438 0.968883 0.567008 0.668824 0.867067C0.368766 1.16712 0.200195 1.57409 0.200195 1.99844V6.79844C0.200716 7.12982 0.304119 7.45287 0.496123 7.72296C0.688127 7.99306 0.959258 8.19687 1.27207 8.30625C1.44167 8.36646 1.62022 8.39763 1.8002 8.39844C1.80592 8.39847 1.81165 8.39847 1.81738 8.39844L11.4002 9.99844L1.81738 11.6C1.81166 11.5994 1.80593 11.5989 1.8002 11.5984C1.6197 11.5991 1.44061 11.6302 1.27051 11.6906C0.957988 11.8003 0.687194 12.0042 0.495486 12.2743C0.303777 12.5443 0.200602 12.8672 0.200195 13.1984V17.9984C0.200195 18.4228 0.368766 18.8298 0.668824 19.1298C0.968883 19.4299 1.37585 19.5984 1.8002 19.5984C2.07877 19.5979 2.35237 19.5247 2.59395 19.3859H2.59551L18.9127 10.7359L18.9143 10.7328C19.0582 10.6714 19.181 10.569 19.2674 10.4385C19.3537 10.308 19.3999 10.155 19.4002 9.99844C19.4004 9.84121 19.3543 9.6874 19.2676 9.55623C19.1809 9.42507 19.0574 9.32236 18.9127 9.26094L2.59551 0.610938C2.35348 0.47195 2.0793 0.398692 1.8002 0.398438Z" fill="#535457"/>
</svg>
