<svg width="16" height="16" viewBox="0 0 16 16" fill="none" xmlns="http://www.w3.org/2000/svg">
<path d="M8 0.5C3.86417 0.5 0.5 3.865 0.5 8H2.16667C2.16667 4.78333 4.78417 2.16667 8 2.16667C9.82091 2.16667 11.4377 3.014 12.5068 4.3265L10.5 6.33333H15.5V1.33333L13.695 3.13835C12.3207 1.52639 10.2804 0.5 8 0.5ZM13.8333 8C13.8333 11.2158 11.2158 13.8333 8 13.8333C6.17909 13.8333 4.56233 12.986 3.49316 11.6735L5.5 9.66667H0.5V14.6667L2.30501 12.8617C3.6793 14.4736 5.71962 15.5 8 15.5C12.1358 15.5 15.5 12.1358 15.5 8H13.8333Z" fill="#94969C"/>
</svg>
