<svg width="16" height="16" viewBox="0 0 16 16" fill="none" xmlns="http://www.w3.org/2000/svg">
<g clip-path="url(#clip0_1_528)">
<path d="M7.99935 1.33203C8.8834 1.33203 9.73125 1.68322 10.3564 2.30834C10.9815 2.93346 11.3327 3.78131 11.3327 4.66536V6.66536C11.8631 6.66536 12.3718 6.87608 12.7469 7.25115C13.122 7.62622 13.3327 8.13493 13.3327 8.66536V12.6654C13.3327 13.1958 13.122 13.7045 12.7469 14.0796C12.3718 14.4546 11.8631 14.6654 11.3327 14.6654H4.66602C4.13558 14.6654 3.62687 14.4546 3.2518 14.0796C2.87673 13.7045 2.66602 13.1958 2.66602 12.6654V8.66536C2.66602 8.13493 2.87673 7.62622 3.2518 7.25115C3.62687 6.87608 4.13558 6.66536 4.66602 6.66536V4.66536C4.66602 3.78131 5.0172 2.93346 5.64233 2.30834C6.26745 1.68322 7.11529 1.33203 7.99935 1.33203ZM7.99935 9.33203C7.66296 9.33192 7.33897 9.45897 7.09232 9.6877C6.84566 9.91642 6.69458 10.2299 6.66935 10.5654L6.66602 10.6654C6.66602 10.9291 6.74421 11.1869 6.89072 11.4061C7.03723 11.6254 7.24547 11.7963 7.4891 11.8972C7.73274 11.9981 8.00083 12.0245 8.25947 11.9731C8.51811 11.9216 8.75569 11.7946 8.94216 11.6082C9.12863 11.4217 9.25562 11.1841 9.30706 10.9255C9.35851 10.6668 9.3321 10.3988 9.23119 10.1551C9.13027 9.91148 8.95937 9.70325 8.74011 9.55674C8.52084 9.41023 8.26306 9.33203 7.99935 9.33203ZM7.99935 2.66536C7.46892 2.66536 6.96021 2.87608 6.58513 3.25115C6.21006 3.62622 5.99935 4.13493 5.99935 4.66536V6.66536H9.99935V4.66536C9.99935 4.13493 9.78864 3.62622 9.41356 3.25115C9.03849 2.87608 8.52978 2.66536 7.99935 2.66536Z" fill="#D1FD0A"/>
</g>
<defs>
<clipPath id="clip0_1_528">
<rect width="16" height="16" fill="white"/>
</clipPath>
</defs>
</svg>
