<svg width="20" height="20" viewBox="0 0 20 20" fill="none" xmlns="http://www.w3.org/2000/svg">
<path d="M8.49054 0C8.01154 0 7.60208 0.338594 7.51008 0.808594L7.17609 2.52344C6.35533 2.8338 5.59641 3.2674 4.93 3.81445L3.28547 3.24805C2.83247 3.09205 2.33406 3.27936 2.09406 3.69336L0.586247 6.30664C0.347247 6.72164 0.434232 7.2485 0.795232 7.5625L2.11359 8.70898C2.04503 9.13034 2.00031 9.55928 2.00031 10C2.00031 10.4407 2.04503 10.8697 2.11359 11.291L0.795232 12.4375C0.434232 12.7515 0.347247 13.2784 0.586247 13.6934L2.09406 16.3066C2.33306 16.7216 2.83247 16.9089 3.28547 16.7539L4.93 16.1875C5.59619 16.7342 6.3557 17.1663 7.17609 17.4766L7.51008 19.1914C7.60208 19.6614 8.01154 20 8.49054 20H11.5101C11.9891 20 12.3985 19.6614 12.4905 19.1914L12.8245 17.4766C13.6453 17.1662 14.4042 16.7326 15.0706 16.1855L16.7152 16.752C17.1682 16.908 17.6666 16.7216 17.9066 16.3066L19.4144 13.6914C19.6534 13.2764 19.5664 12.7515 19.2054 12.4375L17.887 11.291C17.9556 10.8697 18.0003 10.4407 18.0003 10C18.0003 9.55928 17.9556 9.13034 17.887 8.70898L19.2054 7.5625C19.5664 7.2485 19.6534 6.72164 19.4144 6.30664L17.9066 3.69336C17.6676 3.27836 17.1682 3.09109 16.7152 3.24609L15.0706 3.8125C14.4044 3.26579 13.6449 2.83366 12.8245 2.52344L12.4905 0.808594C12.3985 0.338594 11.9891 0 11.5101 0H8.49054ZM10.0003 6C12.2093 6 14.0003 7.791 14.0003 10C14.0003 12.209 12.2093 14 10.0003 14C7.79131 14 6.00031 12.209 6.00031 10C6.00031 7.791 7.79131 6 10.0003 6Z" fill="#8D9095"/>
</svg>
