<svg width="12" height="16" viewBox="0 0 12 16" fill="none" xmlns="http://www.w3.org/2000/svg">
<path d="M11.3753 6.125C11.0003 5.70833 10.5003 5.5 9.95866 5.5H6.12533C6.04199 5.5 6.00033 5.45833 5.95866 5.41667C5.91699 5.33333 5.91699 5.25 5.95866 5.16667C6.29199 4.41667 6.50033 3.75 6.66699 2.91667C6.79199 2.45833 6.83366 2.16667 6.83366 1.875C6.83366 0.666667 5.91699 0.208333 5.45866 0.125C5.37533 0.125 5.29199 0.125 5.25033 0.208333C5.20866 0.25 2.58366 4.04167 1.54199 5.08333C0.666992 5.91667 0.166992 6.95833 0.166992 8V10.75C0.166992 13.125 2.12533 15.0833 4.54199 15.0833H8.41699C9.79199 15.0833 10.917 14.0833 11.1253 12.7083L11.8337 7.625C11.917 7.08333 11.7503 6.54167 11.3753 6.125Z" fill="black"/>
</svg>
