<svg width="20" height="20" viewBox="0 0 20 20" fill="none" xmlns="http://www.w3.org/2000/svg">
<path d="M10.0003 3C6.70104 3 4.02637 5.67468 4.02637 8.97389C4.02637 12.9025 7.91049 14.7832 8.39709 15.221C8.89401 15.6679 9.30458 16.6699 9.47022 17.238C9.55059 17.5138 9.77651 17.6534 10.0003 17.6594C10.2246 17.6529 10.4499 17.5133 10.5303 17.238C10.696 16.6699 11.1065 15.6685 11.6034 15.221C12.09 14.7832 15.9742 12.9025 15.9742 8.97389C15.9742 5.67468 13.2995 3 10.0003 3ZM10.0003 10.6031C9.10038 10.6031 8.37102 9.87378 8.37102 8.97389C8.37102 8.07401 9.10038 7.34465 10.0003 7.34465C10.9001 7.34465 11.6295 8.07401 11.6295 8.97389C11.6295 9.87378 10.9001 10.6031 10.0003 10.6031Z" fill="black"/>
</svg>
