<svg width="20" height="20" viewBox="0 0 20 20" fill="none" xmlns="http://www.w3.org/2000/svg">
<ellipse cx="10" cy="10.0099" rx="7.97566" ry="7.98534" fill="url(#paint0_linear_1_556)"/>
<path d="M8.22197 5.31913L13.4768 4.27475C13.7162 4.22716 13.9394 4.41036 13.9394 4.65449V12.7059C13.9394 13.3913 13.4601 13.9833 12.7897 14.126L12.3255 14.2248C11.5167 14.3968 10.755 13.7801 10.755 12.9533C10.755 12.3708 11.1476 11.8616 11.7108 11.7133L13.0266 11.3671C13.2052 11.3201 13.3296 11.1586 13.3296 10.9739V7.23579C13.3296 7.06394 13.1717 6.93547 13.0035 6.97045L8.62454 7.88058C8.48982 7.90858 8.39325 8.02728 8.39325 8.16488V13.7472C8.39325 14.4969 7.86868 15.1445 7.13525 15.3L6.81691 15.3676C5.98362 15.5443 5.19912 14.9088 5.19912 14.0569C5.19912 13.5141 5.56449 13.0392 6.08923 12.9L7.46649 12.5349C7.63623 12.4899 7.75443 12.3362 7.75443 12.1606V5.88875C7.75443 5.61165 7.95019 5.37315 8.22197 5.31913Z" fill="url(#paint1_radial_1_556)"/>
<path fill-rule="evenodd" clip-rule="evenodd" d="M18.75 10C18.75 14.8325 14.8325 18.75 10 18.75C5.16751 18.75 1.25 14.8325 1.25 10C1.25 5.16751 5.16751 1.25 10 1.25C14.8325 1.25 18.75 5.16751 18.75 10ZM17.9757 10.0097C17.9757 14.4199 14.4048 17.995 10 17.995C5.59516 17.995 2.02434 14.4199 2.02434 10.0097C2.02434 5.5995 5.59516 2.02434 10 2.02434C14.4048 2.02434 17.9757 5.5995 17.9757 10.0097Z" fill="url(#paint2_radial_1_556)"/>
<defs>
<linearGradient id="paint0_linear_1_556" x1="10" y1="2.02454" x2="10" y2="17.9952" gradientUnits="userSpaceOnUse">
<stop stop-color="white"/>
<stop offset="1" stop-color="#DDE2E7"/>
</linearGradient>
<radialGradient id="paint1_radial_1_556" cx="0" cy="0" r="1" gradientUnits="userSpaceOnUse" gradientTransform="translate(5.19911 17.3368) rotate(-55.1325) scale(17.5068 13.748)">
<stop stop-color="#7A66FB"/>
<stop offset="0.440198" stop-color="#52A2F4"/>
<stop offset="0.702" stop-color="#FC5D6D"/>
<stop offset="1" stop-color="#E85E7B"/>
</radialGradient>
<radialGradient id="paint2_radial_1_556" cx="0" cy="0" r="1" gradientUnits="userSpaceOnUse" gradientTransform="translate(5.19911 17.3368) rotate(-55.1325) scale(17.5068 13.748)">
<stop stop-color="#7A66FB"/>
<stop offset="0.440198" stop-color="#52A2F4"/>
<stop offset="0.702" stop-color="#FC5D6D"/>
<stop offset="1" stop-color="#E85E7B"/>
</radialGradient>
</defs>
</svg>
