<svg width="20" height="20" viewBox="0 0 20 20" fill="none" xmlns="http://www.w3.org/2000/svg">
<circle cx="10" cy="10" r="8.75" fill="#1ED760"/>
<path d="M13.9777 13.5143C13.8282 13.7515 13.5093 13.818 13.2602 13.6756C11.2968 12.5371 8.83523 12.2809 5.92515 12.9071C5.6461 12.964 5.36705 12.8027 5.30725 12.5371C5.24745 12.2714 5.41688 12.0058 5.69593 11.9488C8.8751 11.2562 11.6058 11.5503 13.7983 12.8312C14.0475 12.9735 14.1272 13.2771 13.9777 13.5143ZM14.9943 11.3511C14.8049 11.6452 14.4063 11.7306 14.0973 11.5598C11.8549 10.241 8.43659 9.86146 5.78562 10.63C5.43681 10.7249 5.07803 10.5446 4.97837 10.222C4.87871 9.88992 5.06807 9.54835 5.41688 9.45347C8.44656 8.58057 12.2137 8.99805 14.7949 10.5066C15.0839 10.6774 15.1836 11.0569 14.9943 11.3511ZM15.0839 9.09293C12.3931 7.57484 7.95822 7.43252 5.38698 8.17259C4.97837 8.29593 4.53986 8.07771 4.41031 7.67921C4.28075 7.2902 4.51993 6.87273 4.92854 6.74938C7.87849 5.89546 12.7818 6.06625 15.8713 7.81204C16.24 8.02078 16.3596 8.4762 16.1403 8.82726C15.9311 9.18781 15.4527 9.31115 15.0839 9.09293Z" fill="white"/>
</svg>
