<svg width="20" height="20" viewBox="0 0 20 20" fill="none" xmlns="http://www.w3.org/2000/svg">
<circle cx="10" cy="10" r="8.75" fill="#212122"/>
<path d="M6.69741 11.6585C6.76578 11.0924 6.99795 10.7755 7.43546 10.4506C8.06146 10.0106 8.84343 10.2595 8.84343 10.2595V8.78284C9.03353 8.77798 9.22371 8.78925 9.41174 8.81651V10.7168C9.41174 10.7168 8.63002 10.4679 8.00402 10.9081C7.56674 11.2328 7.3341 11.55 7.26597 12.1161C7.26383 12.4235 7.32152 12.8253 7.58716 13.1727C7.52148 13.139 7.45453 13.1006 7.38632 13.0576C6.80115 12.6646 6.69457 12.0751 6.69741 11.6585ZM12.6405 6.05254C12.2099 5.58066 12.047 5.10422 11.9882 4.76953H12.5299C12.5299 4.76953 12.4219 5.64709 13.2091 6.51009L13.22 6.5217C13.0078 6.38824 12.8132 6.23072 12.6405 6.05254ZM15.2501 7.39039V9.25245C15.2501 9.25245 14.5589 9.22537 14.0473 9.09523C13.333 8.91321 12.8739 8.63403 12.8739 8.63403C12.8739 8.63403 12.5567 8.43495 12.5311 8.42107V12.2662C12.5311 12.4803 12.4724 13.015 12.2937 13.461C12.0603 14.0443 11.7002 14.4273 11.634 14.5055C11.634 14.5055 11.196 15.0232 10.4233 15.3717C9.72676 15.6862 9.11524 15.6782 8.93245 15.6862C8.93245 15.6862 7.87535 15.728 6.92412 15.1098C6.71843 14.9736 6.52642 14.8193 6.35059 14.6489L6.35533 14.6523C7.3068 15.2705 8.36366 15.2286 8.36366 15.2286C8.54669 15.2206 9.15821 15.2286 9.85448 14.9142C10.6265 14.5656 11.0652 14.048 11.0652 14.048C11.1307 13.9697 11.4925 13.5868 11.7249 13.0032C11.9032 12.5575 11.9623 12.0226 11.9623 11.8085V7.96375C11.9879 7.97785 12.3048 8.17694 12.3048 8.17694C12.3048 8.17694 12.7642 8.45634 13.4785 8.63813C13.9903 8.76827 14.6814 8.79535 14.6814 8.79535V7.33624C14.9178 7.38925 15.1193 7.40358 15.2501 7.39039Z" fill="#EE1D52"/>
<path d="M14.6816 7.33624V8.79489C14.6816 8.79489 13.9906 8.76782 13.4788 8.63768C12.7645 8.45566 12.3051 8.17648 12.3051 8.17648C12.3051 8.17648 11.9882 7.9774 11.9625 7.96329V11.8089C11.9625 12.023 11.9039 12.5579 11.7252 13.0036C11.4918 13.5872 11.1317 13.9702 11.0654 14.0484C11.0654 14.0484 10.6272 14.5661 9.85475 14.9146C9.15848 15.2291 8.54696 15.2211 8.36393 15.2291C8.36393 15.2291 7.30707 15.2709 6.3556 14.6527L6.35086 14.6493C6.2504 14.5521 6.15584 14.4494 6.06765 14.3417C5.76403 13.9715 5.57791 13.5338 5.53114 13.4089C5.53106 13.4083 5.53106 13.4078 5.53114 13.4073C5.45589 13.1902 5.29779 12.669 5.31939 12.1641C5.35761 11.2733 5.67097 10.7266 5.75382 10.5896C5.97324 10.2161 6.25862 9.88191 6.59727 9.60192C6.8961 9.36032 7.23482 9.16809 7.59953 9.03311C7.9938 8.87463 8.41599 8.78969 8.84346 8.78284V10.2595C8.84346 10.2595 8.0615 10.0115 7.43573 10.4506C6.99822 10.7755 6.76605 11.0924 6.69768 11.6585C6.69484 12.0751 6.80142 12.6646 7.38612 13.0578C7.45433 13.101 7.52127 13.1394 7.58695 13.1729C7.6891 13.3057 7.81342 13.4214 7.95491 13.5153C8.52607 13.8769 9.00465 13.9021 9.61665 13.6673C10.0247 13.5103 10.3319 13.1565 10.4743 12.7645C10.5638 12.5197 10.5627 12.2733 10.5627 12.0185V4.76953H11.987C12.0459 5.10422 12.2087 5.58066 12.6393 6.05254C12.8121 6.23072 13.0067 6.38824 13.2188 6.5217C13.2815 6.58654 13.602 6.90712 14.0134 7.10393C14.2261 7.20566 14.4503 7.28361 14.6816 7.33624Z" fill="white"/>
<path d="M4.96387 12.957V12.9582L4.99921 13.054C4.99515 13.0428 4.98202 13.0089 4.96387 12.957Z" fill="#69C9D0"/>
<path d="M7.59936 9.03385C7.23465 9.16882 6.89593 9.36105 6.59709 9.60266C6.25834 9.88327 5.97302 10.2182 5.75388 10.5924C5.67103 10.7289 5.35767 11.2761 5.31945 12.1669C5.29785 12.6717 5.45595 13.193 5.53121 13.4101C5.53112 13.4106 5.53112 13.4111 5.53121 13.4116C5.57868 13.5354 5.76409 13.9732 6.06771 14.3445C6.15591 14.4521 6.25046 14.5548 6.35092 14.6521C6.02906 14.4388 5.74202 14.1808 5.49916 13.8867C5.19815 13.5197 5.01251 13.0865 4.96408 12.9586C4.96402 12.9577 4.96402 12.9568 4.96408 12.9559V12.9543C4.88859 12.7375 4.73001 12.216 4.75209 11.7104C4.79031 10.8197 5.10366 10.2729 5.18651 10.136C5.4056 9.76171 5.69092 9.42681 6.02973 9.14624C6.3285 8.90456 6.66724 8.71232 7.03199 8.57743C7.25951 8.48696 7.49652 8.42021 7.73894 8.37835C8.10428 8.31722 8.47741 8.31193 8.84447 8.36265V8.78357C8.4166 8.79028 7.99399 8.87522 7.59936 9.03385Z" fill="#69C9D0"/>
<path d="M11.988 4.77028H10.5636V12.0194C10.5636 12.2743 10.5636 12.52 10.4753 12.7655C10.3315 13.1573 10.0255 13.5111 9.61762 13.6681C9.00539 13.9038 8.52681 13.8776 7.95588 13.5161C7.81415 13.4226 7.68951 13.3073 7.58698 13.1748C8.07339 13.4235 8.50876 13.4192 9.04812 13.2117C9.45572 13.0547 9.76219 12.7009 9.90557 12.3088C9.99531 12.064 9.99412 11.8176 9.99412 11.563V4.3125H11.9609C11.9609 4.3125 11.9388 4.4927 11.988 4.77028ZM14.6814 6.93358V7.33698C14.4505 7.28427 14.2267 7.20633 14.0143 7.10468C13.6029 6.90787 13.2825 6.58729 13.2198 6.52245C13.2925 6.56821 13.368 6.60984 13.4458 6.64713C13.946 6.88648 14.4386 6.95793 14.6814 6.93358Z" fill="#69C9D0"/>
</svg>
